# xmcd CD database file
#
# Track frame offsets:
#	150
#	5180
#	16996
#	25416
#	33826
#	43613
#	54033
#	70196
#	75245
#	83386
#	97796
#	107322
#	115904
#	128510
#	137451
#
# Disc length: 1877 seconds
#
# Revision: 0
# Processed by: cddbd v1.5.1PL0 Copyright (c) Steve Scherf et al.
# Submitted via: CDex 1.40Release
#
DISCID=9b07530f
DTITLE=SUZANNE LANGILLE with LOREN MAZZACANE CONNORS - THE ENCHANTED FOREST
DYEAR=1991
DGENRE=Blues
TTITLE0=INVOCATION
TTITLE1=OLD JOHN
TTITLE2=THE RIVER
TTITLE3=JACKIE'S DREAM
TTITLE4=THE WATERFALL
TTITLE5=PROMISE ME
TTITLE6=RETURN TO THE WATERFALL
TTITLE7=JACKIE'S DANCE
TTITLE8=THE RAVEN'S SONG
TTITLE9=ANNE'S SONG
TTITLE10=IN THE WOODS
TTITLE11=OLD JOHN'S SONG
TTITLE12=TO THE MOUNTAIN
TTITLE13=THE ESCAPE
TTITLE14=CLOSING
EXTD=YEAR: 1991 ID3G: 0
EXTT0=
EXTT1=
EXTT2=
EXTT3=
EXTT4=
EXTT5=
EXTT6=
EXTT7=
EXTT8=
EXTT9=
EXTT10=
EXTT11=
EXTT12=
EXTT13=
EXTT14=
PLAYORDER=
